<?xml version="1.0" standalone="no"?>
<!DOCTYPE svg PUBLIC "-//W3C//DTD SVG 20010904//EN"
 "http://www.w3.org/TR/2001/REC-SVG-20010904/DTD/svg10.dtd">
<svg version="1.0" xmlns="http://www.w3.org/2000/svg"
 width="512.000000pt" height="512.000000pt" viewBox="0 0 512.000000 512.000000"
 preserveAspectRatio="xMidYMid meet">
<metadata>
Created by potrace 1.11, written by Peter Selinger 2001-2013
</metadata>
<g transform="translate(0.000000,512.000000) scale(0.100000,-0.100000)"
fill="#000000" stroke="none">
<path d="M95 4930 c52 -104 92 -190 88 -190 -5 0 -3 -4 2 -8 12 -9 59 -104 57
-114 -1 -5 3 -8 9 -8 5 0 8 -4 4 -9 -3 -5 -1 -12 5 -16 8 -5 38 -62 45 -85 0
-3 52 -106 115 -230 63 -124 115 -227 116 -230 1 -3 5 -15 9 -27 4 -13 12 -23
17 -23 5 0 6 -4 3 -10 -3 -5 -1 -10 5 -10 6 0 8 -4 5 -10 -3 -5 -1 -10 5 -10
6 0 9 -4 6 -9 -4 -5 -3 -11 1 -13 10 -4 57 -100 55 -110 -1 -5 3 -8 10 -8 6 0
8 -3 5 -7 -4 -3 -2 -12 4 -19 9 -11 80 -150 84 -164 0 -3 25 -52 55 -110 30
-58 57 -112 60 -120 8 -21 124 -254 130 -260 8 -8 73 -144 76 -159 2 -8 9 -18
16 -22 7 -5 9 -9 3 -9 -6 0 -6 -3 0 -8 12 -8 39 -64 37 -74 -1 -5 3 -8 10 -8
6 0 8 -3 5 -7 -4 -3 -2 -12 3 -18 10 -13 110 -207 120 -235 3 -8 50 -103 104
-210 55 -107 101 -202 102 -210 2 -8 8 -16 14 -18 5 -2 8 -8 4 -13 -3 -5 -1
-9 3 -9 5 0 17 -23 28 -50 11 -27 23 -50 28 -50 4 0 5 -4 2 -10 -3 -5 -2 -10
3 -10 9 0 23 -31 26 -55 1 -5 4 -12 7 -15 7 -6 71 -127 79 -150 3 -8 32 -67
65 -130 32 -63 59 -117 60 -120 2 -9 90 -185 95 -190 3 -3 16 -30 30 -60 14
-30 29 -58 35 -62 5 -4 6 -8 2 -8 -5 0 -1 -7 7 -16 9 -8 14 -20 11 -25 -4 -5
-1 -9 4 -9 6 0 10 -3 9 -7 -1 -5 14 -39 34 -78 l36 -70 0 2053 -1 2052 -1023
0 -1024 0 95 -190z"/>
<path d="M2558 5096 c-3 -14 -1 -30 3 -37 4 -7 4 -20 -1 -29 -5 -9 -5 -22 0
-30 5 -8 5 -21 0 -30 -5 -9 -5 -22 0 -30 5 -8 5 -21 0 -30 -5 -9 -5 -22 0 -30
5 -8 5 -21 0 -30 -5 -9 -5 -22 0 -30 5 -8 5 -21 0 -30 -5 -9 -5 -22 0 -30 5
-8 5 -21 0 -30 -5 -9 -5 -22 0 -30 5 -8 5 -21 0 -30 -5 -9 -5 -22 0 -30 5 -8
5 -21 0 -30 -5 -9 -5 -22 0 -30 5 -8 5 -21 0 -30 -5 -9 -5 -22 0 -30 5 -8 5
-21 0 -30 -5 -9 -5 -22 0 -30 5 -8 5 -21 0 -30 -5 -9 -5 -22 0 -30 5 -8 5 -21
0 -30 -5 -9 -5 -22 0 -30 5 -8 5 -21 0 -30 -5 -9 -5 -22 0 -30 5 -8 5 -21 0
-30 -5 -9 -5 -22 0 -30 5 -8 5 -21 0 -30 -5 -9 -5 -22 0 -30 5 -8 5 -21 0 -30
-5 -9 -5 -22 0 -30 5 -8 5 -21 0 -30 -5 -9 -5 -22 0 -30 5 -8 5 -21 0 -30 -5
-9 -5 -22 0 -30 5 -8 5 -21 0 -30 -5 -9 -5 -22 0 -30 5 -8 5 -21 0 -30 -5 -9
-5 -22 0 -30 5 -8 5 -21 0 -30 -5 -9 -5 -22 0 -30 5 -8 5 -21 0 -30 -5 -9 -5
-22 0 -30 5 -8 5 -21 0 -30 -5 -9 -5 -22 0 -30 5 -8 5 -21 0 -30 -5 -9 -5 -22
0 -30 5 -8 5 -21 0 -30 -5 -9 -5 -22 0 -30 5 -8 5 -21 0 -30 -5 -9 -5 -22 0
-30 5 -8 5 -21 0 -30 -5 -9 -5 -22 0 -30 5 -8 5 -21 0 -30 -5 -9 -5 -22 0 -30
5 -8 5 -21 0 -30 -5 -9 -5 -22 0 -30 5 -8 5 -21 0 -30 -5 -9 -5 -22 0 -30 5
-8 5 -21 0 -30 -5 -9 -5 -22 0 -30 5 -8 5 -21 0 -30 -5 -9 -5 -22 0 -30 5 -8
5 -21 0 -30 -5 -9 -5 -22 0 -30 5 -8 5 -21 0 -30 -5 -9 -5 -22 0 -30 5 -8 5
-21 0 -30 -5 -9 -5 -22 0 -30 5 -8 5 -21 0 -30 -5 -9 -5 -22 0 -30 5 -8 5 -21
0 -30 -5 -9 -5 -22 0 -30 5 -8 5 -21 0 -30 -5 -9 -5 -22 0 -30 5 -8 5 -21 0
-30 -5 -9 -5 -22 0 -30 5 -8 5 -21 0 -30 -5 -9 -5 -22 0 -30 5 -8 5 -21 0 -30
-5 -9 -5 -22 0 -30 5 -8 5 -21 0 -30 -5 -9 -5 -22 0 -30 5 -8 6 -18 3 -23 -8
-13 -9 -87 -1 -87 4 0 3 -13 -2 -30 -5 -17 -5 -30 0 -30 5 0 5 -13 0 -30 -5
-17 -5 -30 0 -30 5 0 5 -13 0 -30 -5 -17 -5 -30 0 -30 5 0 5 -13 0 -30 -5 -17
-5 -30 0 -30 5 0 5 -13 0 -30 -5 -17 -5 -30 0 -30 5 0 5 -13 0 -30 -5 -17 -5
-30 0 -30 5 0 5 -13 0 -30 -5 -17 -5 -30 0 -30 5 0 5 -13 0 -30 -5 -17 -5 -30
0 -30 5 0 5 -13 0 -30 -5 -17 -5 -30 0 -30 5 0 5 -13 0 -30 -5 -17 -5 -30 0
-30 5 0 5 -13 0 -30 -5 -17 -5 -30 0 -30 5 0 5 -13 0 -30 -5 -17 -5 -30 0 -30
5 0 5 -13 0 -30 -5 -17 -5 -30 0 -30 5 0 5 -13 0 -30 -5 -17 -5 -30 0 -30 5 0
5 -13 0 -30 -5 -17 -5 -30 0 -30 5 0 5 -13 0 -30 -5 -17 -5 -30 0 -30 5 0 5
-13 0 -30 -5 -17 -5 -30 0 -30 5 0 5 -13 0 -30 -5 -17 -5 -30 0 -30 5 0 5 -13
0 -30 -5 -17 -5 -30 0 -30 5 0 5 -13 0 -30 -5 -17 -5 -30 0 -30 5 0 5 -13 0
-30 -5 -17 -5 -30 0 -30 5 0 5 -13 0 -30 -5 -17 -5 -30 0 -30 5 0 5 -13 0 -30
-5 -17 -5 -30 0 -30 5 0 5 -13 0 -30 -5 -17 -5 -30 0 -30 5 0 5 -13 0 -30 -5
-17 -5 -30 0 -30 5 0 5 -13 0 -30 -5 -17 -5 -30 0 -30 5 0 5 -13 0 -30 -5 -17
-5 -30 0 -30 5 0 5 -13 0 -30 -5 -17 -5 -30 0 -30 5 0 5 -13 0 -30 -5 -17 -5
-30 0 -30 5 0 5 -13 0 -30 -5 -17 -5 -30 0 -30 5 0 5 -13 0 -30 -5 -17 -5 -30
0 -30 5 0 5 -13 0 -30 -5 -17 -5 -30 0 -30 5 0 5 -13 0 -30 -5 -17 -5 -30 0
-30 5 0 5 -13 0 -30 -5 -17 -5 -30 0 -30 5 0 5 -13 0 -30 -5 -17 -5 -30 0 -30
5 0 5 -13 0 -30 -5 -17 -5 -30 0 -30 5 0 5 -13 0 -30 -5 -17 -5 -30 0 -30 5 0
5 -13 0 -30 -5 -16 -5 -30 0 -30 4 0 4 -16 0 -34 -4 -19 -5 -37 -3 -40 3 -2 5
-21 5 -40 0 -20 3 -36 7 -36 6 0 70 125 280 550 45 91 85 172 90 180 35 60
227 456 231 475 1 6 9 18 18 29 9 10 16 21 16 25 -1 3 8 24 19 46 12 22 20 43
19 48 -1 4 3 7 8 7 5 0 9 3 8 8 -1 4 10 31 25 60 15 28 24 52 20 52 -5 0 -3 4
4 8 9 5 233 441 238 462 0 3 18 38 38 77 21 40 36 75 35 77 -2 2 5 13 15 23 9
11 14 23 10 26 -3 4 -1 7 5 7 7 0 11 3 10 8 -2 8 54 125 69 145 5 6 25 48 43
92 19 44 38 85 43 92 5 6 35 66 67 133 32 67 65 131 72 143 7 12 29 56 48 97
19 41 37 77 40 80 3 3 34 66 70 140 36 74 70 144 77 155 7 11 60 116 118 234
58 118 110 220 116 227 5 6 9 16 8 20 -2 5 151 317 339 693 188 376 342 688
342 692 0 5 -564 9 -1274 9 l-1274 0 -4 -24z"/>
<path d="M5041 3967 c-36 -73 -69 -135 -74 -138 -5 -3 -8 -10 -8 -15 1 -17
-10 -44 -20 -44 -5 0 -9 -6 -9 -12 0 -16 -52 -121 -64 -129 -5 -4 -5 -12 -2
-18 4 -6 3 -11 -2 -11 -9 0 -28 -42 -30 -64 0 -5 -5 -12 -10 -15 -13 -9 -64
-111 -55 -111 5 0 3 -4 -3 -8 -9 -7 -78 -142 -140 -277 -15 -33 -32 -63 -37
-66 -5 -3 -8 -9 -7 -13 2 -10 -52 -120 -63 -127 -5 -3 -9 -9 -9 -12 0 -19 -12
-47 -19 -47 -5 0 -8 -4 -6 -8 3 -9 -64 -145 -76 -153 -5 -3 -8 -9 -7 -13 1 -6
-233 -485 -292 -598 l-19 -38 73 0 c133 -1 842 -1 901 -1 l57 1 0 1019 c0 561
-3 1022 -8 1024 -4 3 -36 -54 -71 -126z"/>
<path d="M0 2015 l0 -2015 1024 0 1024 0 -15 33 c-9 17 -21 35 -27 39 -6 4 -8
8 -4 8 4 0 -31 74 -77 165 -46 91 -81 165 -78 165 4 0 -2 9 -12 20 -10 11 -14
20 -9 20 5 0 4 4 -1 8 -6 4 -39 66 -75 137 -35 72 -67 132 -70 135 -11 9 -265
525 -262 533 1 4 -3 7 -9 7 -5 0 -8 4 -5 9 4 5 3 11 -1 13 -5 1 -37 62 -73
133 -35 72 -67 132 -70 135 -3 3 -21 37 -39 75 -19 39 -39 73 -45 77 -6 4 -8
8 -3 8 10 0 -22 62 -37 72 -6 4 -8 8 -4 8 4 0 -21 56 -56 125 -36 69 -62 125
-60 125 3 0 -2 7 -10 16 -9 8 -14 19 -11 24 3 5 2 10 -3 12 -4 1 -39 66 -77
143 -38 77 -72 142 -75 145 -3 3 -16 28 -30 55 -13 28 -29 53 -35 57 -5 4 -7
8 -3 8 4 0 -29 70 -72 155 -43 85 -76 155 -74 155 3 0 -2 7 -10 16 -9 8 -14
19 -11 24 3 5 2 10 -2 12 -13 5 -152 285 -146 292 4 3 2 6 -3 6 -5 0 -18 17
-29 38 -11 20 -24 40 -28 43 -5 3 -8 9 -7 13 3 9 -122 259 -133 267 -5 3 -7 8
-5 10 5 6 -236 488 -244 488 -5 1 -8 -906 -8 -2014z"/>
<path d="M3770 1405 c-35 -71 -72 -142 -83 -157 -10 -16 -16 -28 -12 -28 7 0
-26 -62 -38 -71 -5 -3 -8 -9 -8 -13 1 -3 0 -8 0 -11 -1 -3 -2 -8 -3 -12 -2 -9
-61 -129 -75 -153 -5 -8 -65 -127 -132 -265 -68 -137 -127 -253 -132 -256 -5
-3 -9 -9 -9 -12 0 -19 -12 -47 -20 -47 -5 0 -7 -4 -3 -9 3 -5 -1 -16 -9 -24
-8 -8 -12 -17 -9 -21 4 -3 0 -6 -7 -6 -7 0 -11 -3 -7 -6 3 -3 -21 -57 -54
-120 -32 -63 -56 -114 -53 -114 3 0 -4 -15 -15 -33 -11 -19 -18 -37 -14 -40 3
-4 462 -7 1020 -7 l1013 0 -2 768 -3 767 -640 0 -641 0 -64 -130z"/>
</g>
</svg>
